<svg xmlns="http://www.w3.org/2000/svg" xmlns:xlink="http://www.w3.org/1999/xlink" id="Layer_1" x="0px" y="0px" viewBox="0 0 476 92" style="enable-background:new 0 0 476 92;" xml:space="preserve"><style type="text/css">	.st0{fill:#2980B9;}	.st1{fill:#F89406;}</style><g>	<path class="st0" d="M101.7,25.5c-1,0.2-2,0.5-2.9,0.7c-3.2,0.7-6.4,1.4-9.6,2.1c-0.7,0.1-1,0-1.4-0.6c-1.6-3-3.7-5.7-6.3-7.9  c-2.9-2.4-6.1-4.1-9.6-5.3c-3.2-1.2-6.5-2-9.8-2.5c-3.2-0.5-6.4-0.8-9.6-0.7c-6.6,0.2-13.1,1.1-19.2,3.7c-5.8,2.4-10.7,6-14.3,11.2  c-2.4,3.5-3.9,7.4-4.7,11.6c-0.5,2.6-0.7,5.3-0.7,8c0.2,7,1.8,13.6,5.6,19.6c3,4.7,7.1,8.2,12.1,10.6c4.4,2.2,9,3.4,13.8,4.1  c3.6,0.5,7.2,0.7,10.7,0.6c6.1-0.1,12.1-0.9,17.8-3.1c7.1-2.8,12.6-7.4,16.2-14.2c0.3-0.5,0.5-0.6,1.1-0.5c4,0.8,7.9,1.7,11.9,2.5  c0.1,0,0.3,0.1,0.5,0.1c0,0.1,0,0.3-0.1,0.4c-2.7,5-5.9,9.7-10.4,13.4c-4.8,4-10.2,6.8-16.2,8.7c-4.2,1.3-8.4,2.4-12.8,2.8  c-3.1,0.3-6.2,0.5-9.4,0.7c-3.4,0.2-6.8,0-10.1-0.4c-6.5-0.6-12.7-2.1-18.7-4.8C16.2,82.1,9,75.3,4.6,65.7C2.7,61.7,1.5,57.4,1,53  c-0.3-2.7-0.5-5.4-0.5-8.2c0-5.1,0.7-10.1,2.4-15C5,23.6,8.5,18.1,13.5,13.7c3.6-3.1,7.3-5.9,11.6-7.9c4.6-2.2,9.5-3.6,14.6-4.4  c3.7-0.6,7.4-0.9,11.2-1c8.6-0.2,17,0.9,25.2,3.6c7,2.3,13.1,6,18.2,11.4c2.8,2.9,5.1,6.2,7.2,9.7  C101.5,25.1,101.6,25.2,101.7,25.5z"></path>	<path class="st0" d="M85.1,57.9C84.4,59,83.9,60,83.3,61c-3.4,5.3-8.2,8.8-14.1,10.9c-3.8,1.4-7.7,2.2-11.6,2.5  c-3.4,0.3-6.8,0.3-10.1-0.1c-4.7-0.5-9.2-1.6-13.4-3.7c-7.8-4-12.6-10.4-14.3-18.9c-0.4-2.1-0.7-4.4-0.7-6.6  c0-5.7,1.1-11.1,4.4-15.9c2.5-3.7,5.8-6.4,9.6-8.6c3.8-2.3,8-3.5,12.4-4c2.6-0.3,5.3-0.5,7.9-0.5c5.7,0.1,11.3,1,16.6,3.3  c6,2.6,10.5,6.9,13.7,12.5c0,0.1,0.1,0.2,0.1,0.3c-0.2,0.1-0.4,0.2-0.6,0.2c-2.5,0.6-5,1.1-7.4,1.7c-0.4,0.1-0.6,0-0.8-0.3  c-2.9-5.6-7.9-8.2-13.7-9.6c-3.5-0.8-7.1-1.1-10.7-0.9c-4.3,0.2-8.5,1.1-12.3,3.1c-5.6,2.9-9.1,7.4-10.2,13.6  c-1,5.5-0.4,10.8,2.1,15.9c2.1,4.3,5.5,7.3,9.9,9.2c3.1,1.3,6.3,2.1,9.6,2.3c4.8,0.4,9.5,0.2,14.1-1.1c5.4-1.5,9.7-4.6,12.4-9.5  c0.3-0.5,0.5-0.6,1.1-0.5c2.3,0.5,4.6,1,6.9,1.4C84.4,57.7,84.7,57.8,85.1,57.9z"></path>	<circle class="st1" cx="95.7" cy="45.9" r="11.6"></circle></g><g>	<g>		<path class="st0" d="M144.4,52.4l-0.6,10.2c-2.3,0.8-4.3,1.3-6.1,1.3c-4.2,0-7.8-1.5-10.6-4.5c-3.2-3.3-4.8-8.1-4.8-14.2   c0-5.7,1.5-10.3,4.5-13.8c3-3.5,7.1-5.2,12.1-5.2c1.6,0,3.3,0.3,5,0.9v10.4c-1.5-1.5-3.1-2.3-4.7-2.3c-2.1,0-3.7,0.9-4.9,2.6   c-1.2,1.8-1.8,4.2-1.8,7.4c0,1.5,0.1,2.9,0.4,4.1c0.3,1.2,0.7,2.2,1.3,3c0.5,0.8,1.2,1.5,2,1.9c0.8,0.4,1.7,0.7,2.7,0.7   C140.8,54.8,142.6,54,144.4,52.4z"></path>		<path class="st0" d="M176.8,45.2c0,5.5-1.3,10.1-3.9,13.5c-2.6,3.5-6,5.2-10.2,5.2c-3.7,0-6.9-1.3-9.5-4c-3.3-3.4-5-8.4-5-15.1   c0-6.4,1.7-11.4,5.2-14.8c2.6-2.5,5.7-3.8,9.2-3.8c4.3,0,7.8,1.7,10.4,5.1C175.5,34.7,176.8,39.4,176.8,45.2z M166.2,45.2   c0-6.7-1.2-10-3.6-10c-1.2,0-2.2,0.9-2.9,2.6c-0.7,1.6-1,4-1,7.2c0,3.1,0.3,5.5,1,7.2c0.7,1.7,1.6,2.6,2.7,2.6   c1.2,0,2.1-0.8,2.8-2.5C165.9,50.6,166.2,48.3,166.2,45.2z"></path>		<path class="st0" d="M208.7,63.9h-11l-5-13.4c0-0.2-0.1-0.5-0.3-0.9c-0.1-0.4-0.3-0.8-0.5-1.3l0.1,2.5v13.2h-10.1V26.2h10.4   c4.6,0,8,0.9,10.3,2.7c2.9,2.3,4.3,5.6,4.3,9.9c0,4.6-1.9,7.7-5.8,9.4L208.7,63.9z M192.1,43.1h0.7c1.2,0,2.1-0.4,2.9-1.3   c0.8-0.9,1.2-2,1.2-3.4c0-2.8-1.5-4.2-4.4-4.2h-0.4V43.1z"></path>		<path class="st0" d="M212.8,63.9V26.2h18.9v9H223V40h7.8v9H223v5.8h8.7v9H212.8z"></path>	</g>	<g>		<path class="st0" d="M266.7,12.9v7.3c-2.1-1-3.8-1.5-5.2-1.5c-1.9,0-3.6,0.5-5,1.4c-1.4,1-2.5,2.4-3.4,4.4c-0.9,2-1.6,4.5-2,7.5   c-0.4,3-0.6,6.6-0.6,10.8c0,14.9,3.8,22.3,11.4,22.3c1.3,0,2.9-0.4,4.8-1.2v7.5c-2,1.1-4.1,1.6-6.6,1.6c-12.2,0-18.3-10-18.3-29.9   c0-10.8,1.5-18.8,4.5-24.1c3-5.3,7.5-7.9,13.7-7.9C262.3,11.1,264.5,11.7,266.7,12.9z"></path>		<path class="st0" d="M283.3,11.9h6.3l12.9,60.3h-8l-2.3-11.8h-12L278,72.2h-7.8L283.3,11.9z M291,54.1l-1.8-9.6   c-1.2-6.5-2.2-13.5-2.9-20.9c-0.4,3.6-0.8,7.3-1.4,11c-0.6,3.7-1.2,7.7-2,11.8l-1.5,7.7H291z"></path>		<path class="st0" d="M326.3,13.1v7.9c-2.5-1.8-4.7-2.7-6.7-2.7c-2.1,0-3.9,0.8-5.2,2.3c-1.4,1.4-2,3.3-2,5.7   c0,2.1,0.5,3.9,1.4,5.4c0.5,0.8,1.3,1.8,2.4,3.1c1.1,1.3,2.6,2.8,4.4,4.6c3.3,3.4,5.6,6.3,6.8,8.7c1.2,2.4,1.8,5.3,1.8,8.7   c0,4.7-1.3,8.5-3.9,11.5c-2.6,2.9-6,4.4-10.1,4.4c-3.5,0-6.4-1-8.9-2.9v-8c2.9,2.1,5.5,3.2,7.9,3.2c2.2,0,3.9-0.7,5.2-2.2   c1.2-1.5,1.9-3.5,1.9-6c0-2.2-0.5-4.2-1.4-5.9c-0.5-0.8-1.2-1.8-2.1-2.9c-0.9-1.1-2-2.3-3.3-3.6c-2.1-2-3.8-3.8-5.1-5.4   c-1.4-1.6-2.4-2.9-3-4.1c-1.2-2.3-1.9-5.2-1.9-8.7c0-4.7,1.2-8.5,3.7-11.2c2.5-2.8,5.8-4.2,10-4.2   C320.9,11.1,323.7,11.8,326.3,13.1z"></path>		<path class="st0" d="M334.9,11.9h8.1v23.6h11.9V11.9h8.1v60.3h-8.1V42.4H343v29.8h-8.1V11.9z"></path>		<path class="st0" d="M371.2,11.9h8.1v53.4h13.3v6.9h-21.4V11.9z"></path>		<path class="st0" d="M396.6,11.9h21.6v6.9h-13.5v19.1h12v6.9h-12v20.6h13.5v6.9h-21.6V11.9z"></path>		<path class="st0" d="M444.7,13.1v7.9c-2.5-1.8-4.7-2.7-6.7-2.7c-2.1,0-3.9,0.8-5.2,2.3c-1.4,1.4-2,3.3-2,5.7   c0,2.1,0.5,3.9,1.4,5.4c0.5,0.8,1.3,1.8,2.4,3.1c1.1,1.3,2.6,2.8,4.4,4.6c3.3,3.4,5.6,6.3,6.8,8.7c1.2,2.4,1.8,5.3,1.8,8.7   c0,4.7-1.3,8.5-3.9,11.5c-2.6,2.9-6,4.4-10.1,4.4c-3.5,0-6.4-1-8.9-2.9v-8c2.9,2.1,5.5,3.2,7.9,3.2c2.2,0,3.9-0.7,5.2-2.2   c1.2-1.5,1.9-3.5,1.9-6c0-2.2-0.5-4.2-1.4-5.9c-0.5-0.8-1.2-1.8-2.1-2.9c-0.9-1.1-2-2.3-3.3-3.6c-2.1-2-3.8-3.8-5.1-5.4   c-1.4-1.6-2.4-2.9-3-4.1c-1.2-2.3-1.9-5.2-1.9-8.7c0-4.7,1.2-8.5,3.7-11.2c2.5-2.8,5.8-4.2,10-4.2C439.3,11.1,442,11.8,444.7,13.1   z"></path>		<path class="st0" d="M473.4,13.1v7.9c-2.5-1.8-4.7-2.7-6.7-2.7c-2.1,0-3.9,0.8-5.2,2.3c-1.4,1.4-2,3.3-2,5.7   c0,2.1,0.5,3.9,1.4,5.4c0.5,0.8,1.3,1.8,2.4,3.1c1.1,1.3,2.6,2.8,4.4,4.6c3.3,3.4,5.6,6.3,6.8,8.7c1.2,2.4,1.8,5.3,1.8,8.7   c0,4.7-1.3,8.5-3.9,11.5c-2.6,2.9-6,4.4-10.1,4.4c-3.5,0-6.4-1-8.9-2.9v-8c2.9,2.1,5.5,3.2,7.9,3.2c2.2,0,3.9-0.7,5.2-2.2   c1.2-1.5,1.9-3.5,1.9-6c0-2.2-0.5-4.2-1.4-5.9c-0.5-0.8-1.2-1.8-2.1-2.9c-0.9-1.1-2-2.3-3.3-3.6c-2.1-2-3.8-3.8-5.1-5.4   c-1.4-1.6-2.4-2.9-3-4.1c-1.2-2.3-1.9-5.2-1.9-8.7c0-4.7,1.2-8.5,3.7-11.2c2.5-2.8,5.8-4.2,10-4.2C468,11.1,470.8,11.8,473.4,13.1   z"></path>	</g></g></svg>