<svg xmlns="http://www.w3.org/2000/svg" viewBox="-6 -14 120 120"><style type="text/css">.st0{fill:#2980B9;}.st1{fill:#F89406;}</style><g><path class="st0" d="M101.7,25.5c-1,0.2-2,0.5-2.9,0.7c-3.2,0.7-6.4,1.4-9.6,2.1c-0.7,0.1-1,0-1.4-0.6c-1.6-3-3.7-5.7-6.3-7.9  c-2.9-2.4-6.1-4.1-9.6-5.3c-3.2-1.2-6.5-2-9.8-2.5c-3.2-0.5-6.4-0.8-9.6-0.7c-6.6,0.2-13.1,1.1-19.2,3.7c-5.8,2.4-10.7,6-14.3,11.2  c-2.4,3.5-3.9,7.4-4.7,11.6c-0.5,2.6-0.7,5.3-0.7,8c0.2,7,1.8,13.6,5.6,19.6c3,4.7,7.1,8.2,12.1,10.6c4.4,2.2,9,3.4,13.8,4.1  c3.6,0.5,7.2,0.7,10.7,0.6c6.1-0.1,12.1-0.9,17.8-3.1c7.1-2.8,12.6-7.4,16.2-14.2c0.3-0.5,0.5-0.6,1.1-0.5c4,0.8,7.9,1.7,11.9,2.5  c0.1,0,0.3,0.1,0.5,0.1c0,0.1,0,0.3-0.1,0.4c-2.7,5-5.9,9.7-10.4,13.4c-4.8,4-10.2,6.8-16.2,8.7c-4.2,1.3-8.4,2.4-12.8,2.8  c-3.1,0.3-6.2,0.5-9.4,0.7c-3.4,0.2-6.8,0-10.1-0.4c-6.5-0.6-12.7-2.1-18.7-4.8C16.2,82.1,9,75.3,4.6,65.7C2.7,61.7,1.5,57.4,1,53  c-0.3-2.7-0.5-5.4-0.5-8.2c0-5.1,0.7-10.1,2.4-15C5,23.6,8.5,18.1,13.5,13.7c3.6-3.1,7.3-5.9,11.6-7.9c4.6-2.2,9.5-3.6,14.6-4.4  c3.7-0.6,7.4-0.9,11.2-1c8.6-0.2,17,0.9,25.2,3.6c7,2.3,13.1,6,18.2,11.4c2.8,2.9,5.1,6.2,7.2,9.7  C101.5,25.1,101.6,25.2,101.7,25.5z"></path><path class="st0" d="M85.1,57.9C84.4,59,83.9,60,83.3,61c-3.4,5.3-8.2,8.8-14.1,10.9c-3.8,1.4-7.7,2.2-11.6,2.5  c-3.4,0.3-6.8,0.3-10.1-0.1c-4.7-0.5-9.2-1.6-13.4-3.7c-7.8-4-12.6-10.4-14.3-18.9c-0.4-2.1-0.7-4.4-0.7-6.6  c0-5.7,1.1-11.1,4.4-15.9c2.5-3.7,5.8-6.4,9.6-8.6c3.8-2.3,8-3.5,12.4-4c2.6-0.3,5.3-0.5,7.9-0.5c5.7,0.1,11.3,1,16.6,3.3  c6,2.6,10.5,6.9,13.7,12.5c0,0.1,0.1,0.2,0.1,0.3c-0.2,0.1-0.4,0.2-0.6,0.2c-2.5,0.6-5,1.1-7.4,1.7c-0.4,0.1-0.6,0-0.8-0.3  c-2.9-5.6-7.9-8.2-13.7-9.6c-3.5-0.8-7.1-1.1-10.7-0.9c-4.3,0.2-8.5,1.1-12.3,3.1c-5.6,2.9-9.1,7.4-10.2,13.6  c-1,5.5-0.4,10.8,2.1,15.9c2.1,4.3,5.5,7.3,9.9,9.2c3.1,1.3,6.3,2.1,9.6,2.3c4.8,0.4,9.5,0.2,14.1-1.1c5.4-1.5,9.7-4.6,12.4-9.5  c0.3-0.5,0.5-0.6,1.1-0.5c2.3,0.5,4.6,1,6.9,1.4C84.4,57.7,84.7,57.8,85.1,57.9z"></path><circle class="st1" cx="95.7" cy="45.9" r="11.6"></circle></g></svg>
